<svg width="2943" height="1637" viewBox="0 0 2943 1637" fill="none" xmlns="http://www.w3.org/2000/svg">
<line y1="164.168" x2="2942.9" y2="164.168" stroke="black"/>
<line y1="328.838" x2="2942.9" y2="328.838" stroke="black"/>
<line y1="493.506" x2="2942.9" y2="493.506" stroke="black"/>
<line y1="658.174" x2="2942.9" y2="658.174" stroke="black"/>
<line y1="822.843" x2="2942.9" y2="822.843" stroke="black"/>
<line y1="987.512" x2="2942.9" y2="987.512" stroke="black"/>
<line y1="1152.18" x2="2942.9" y2="1152.18" stroke="black"/>
<line y1="1316.85" x2="2942.9" y2="1316.85" stroke="black"/>
<line y1="1481.52" x2="2942.9" y2="1481.52" stroke="black"/>
<line x1="111.812" y1="2.2535e-08" x2="111.812" y2="1637" stroke="black"/>
<line x1="230.094" y1="2.2535e-08" x2="230.094" y2="1637" stroke="black"/>
<line x1="348.359" y1="2.2535e-08" x2="348.359" y2="1637" stroke="black"/>
<line x1="466.633" y1="2.2535e-08" x2="466.633" y2="1637" stroke="black"/>
<line x1="584.906" y1="2.2535e-08" x2="584.906" y2="1637" stroke="black"/>
<line x1="703.176" y1="2.2535e-08" x2="703.176" y2="1637" stroke="black"/>
<line x1="821.445" y1="2.2535e-08" x2="821.445" y2="1637" stroke="black"/>
<line x1="939.715" y1="2.2535e-08" x2="939.715" y2="1637" stroke="black"/>
<line x1="1058" y1="2.18557e-08" x2="1058" y2="1637" stroke="black"/>
<line x1="1176.27" y1="2.18557e-08" x2="1176.27" y2="1637" stroke="black"/>
<line x1="1294.54" y1="2.18557e-08" x2="1294.54" y2="1637" stroke="black"/>
<line x1="1412.82" y1="2.2535e-08" x2="1412.82" y2="1637" stroke="black"/>
<line x1="1531.09" y1="2.2535e-08" x2="1531.09" y2="1637" stroke="black"/>
<line x1="1649.36" y1="2.2535e-08" x2="1649.36" y2="1637" stroke="black"/>
<line x1="1767.62" y1="2.2535e-08" x2="1767.62" y2="1637" stroke="black"/>
<line x1="1885.9" y1="2.18557e-08" x2="1885.9" y2="1637" stroke="black"/>
<line x1="2004.18" y1="2.2535e-08" x2="2004.18" y2="1637" stroke="black"/>
<line x1="2122.44" y1="2.2535e-08" x2="2122.44" y2="1637" stroke="black"/>
<line x1="2240.72" y1="2.2535e-08" x2="2240.72" y2="1637" stroke="black"/>
<line x1="2358.99" y1="2.2535e-08" x2="2358.99" y2="1637" stroke="black"/>
<line x1="2477.26" y1="2.2535e-08" x2="2477.26" y2="1637" stroke="black"/>
<line x1="2595.54" y1="2.18557e-08" x2="2595.54" y2="1637" stroke="black"/>
<line x1="2713.81" y1="2.2535e-08" x2="2713.81" y2="1637" stroke="black"/>
<line x1="2832.08" y1="2.2535e-08" x2="2832.08" y2="1637" stroke="black"/>
</svg>
